<?xml version="1.0" standalone="no"?>
<!DOCTYPE svg PUBLIC "-//W3C//DTD SVG 20010904//EN"
 "http://www.w3.org/TR/2001/REC-SVG-20010904/DTD/svg10.dtd">
<svg version="1.0" xmlns="http://www.w3.org/2000/svg"
 width="616.000000pt" height="616.000000pt" viewBox="0 0 616.000000 616.000000"
 preserveAspectRatio="xMidYMid meet">
<metadata>
Created by potrace 1.11, written by Peter Selinger 2001-2013
</metadata>
<g transform="translate(0.000000,616.000000) scale(0.100000,-0.100000)"
fill="#000000" stroke="none">
<path d="M3737 5004 c-2 -2 -33 -7 -68 -9 -166 -13 -260 -31 -393 -76 -371
-127 -635 -356 -787 -686 -23 -49 -45 -96 -51 -107 -5 -10 -11 -26 -14 -35 -2
-9 -17 -54 -33 -101 -16 -47 -32 -99 -35 -115 -6 -26 -15 -34 -69 -54 -105
-40 -199 -87 -281 -141 -91 -59 -114 -80 -94 -81 46 -2 89 -28 106 -62 25 -52
31 -101 29 -244 -2 -151 -3 -152 -32 -195 -19 -27 -48 -52 -79 -67 -45 -23
-59 -24 -191 -23 -122 0 -150 4 -192 22 -64 27 -96 79 -96 156 l0 54 -136 1
c-305 1 -342 0 -374 -16 -53 -25 -70 -63 -67 -155 1 -30 2 -75 1 -100 -2 -113
0 -258 5 -284 7 -38 49 -75 94 -82 19 -3 140 -6 269 -7 l235 -2 17 -85 c9 -47
25 -110 35 -140 10 -30 18 -57 19 -60 3 -9 24 -60 46 -108 54 -121 212 -321
324 -411 169 -134 407 -242 615 -277 14 -2 34 -6 45 -8 49 -11 149 -19 252
-20 108 -2 113 -3 150 -32 21 -16 63 -46 93 -66 61 -39 240 -130 240 -121 0 3
6 1 13 -4 13 -11 127 -50 167 -57 14 -2 32 -7 40 -10 15 -5 31 -8 135 -23 94
-14 364 -8 455 11 98 20 253 67 258 78 2 5 10 8 19 8 43 0 273 147 361 231
l43 41 89 4 c178 6 355 49 524 126 39 18 76 36 81 41 6 4 42 27 80 52 66 41
252 201 254 218 1 4 9 15 19 25 9 10 26 31 37 46 11 15 35 48 53 71 17 24 32
50 32 59 0 8 4 16 8 18 22 8 119 245 136 333 4 17 9 41 12 55 26 128 26 374 0
490 -3 14 -9 41 -13 60 -9 42 -8 41 -15 60 -4 8 -14 40 -24 70 -65 195 -207
400 -384 554 -51 45 -188 134 -260 170 -75 38 -211 91 -223 88 -4 -1 -17 19
-28 45 -53 128 -126 252 -206 350 -38 47 -145 155 -183 184 -14 10 -45 35 -70
54 -25 19 -51 35 -57 35 -7 0 -13 4 -13 9 0 4 -55 36 -122 69 -116 57 -232 99
-337 123 -73 17 -84 19 -126 25 -22 3 -51 8 -65 10 -14 2 -74 6 -135 10 -60 3
-115 7 -122 9 -6 2 -13 2 -16 -1z m383 -658 c30 -4 73 -12 95 -18 22 -5 50
-12 62 -14 35 -7 177 -60 235 -90 241 -120 449 -339 521 -549 45 -132 54 -289
23 -393 -3 -9 -7 -30 -10 -46 -10 -59 -118 -258 -165 -305 -9 -9 -30 -34 -46
-55 l-28 -37 39 22 c38 22 98 64 120 84 93 83 114 108 165 186 87 133 140 289
143 422 0 26 1 47 2 47 5 0 56 -94 102 -185 48 -97 89 -201 97 -248 2 -12 9
-49 15 -83 11 -66 14 -207 6 -266 -3 -21 -8 -53 -11 -70 -2 -18 -9 -48 -14
-65 -5 -18 -8 -33 -5 -33 2 0 -2 -13 -11 -30 -8 -16 -15 -33 -15 -37 1 -16
-63 -153 -71 -153 -5 0 -9 -6 -9 -14 0 -23 -88 -136 -164 -212 -112 -111 -247
-194 -397 -243 -112 -37 -166 -45 -294 -45 -95 0 -258 26 -280 44 -5 5 -14 9
-20 10 -69 15 -184 87 -255 159 -81 83 -151 210 -172 313 -11 55 -22 73 -27
46 -1 -7 -3 -65 -5 -128 -3 -103 -1 -124 23 -196 51 -157 165 -297 321 -393
30 -19 66 -41 80 -50 14 -8 27 -16 30 -17 28 -6 100 -48 94 -54 -13 -11 -175
-53 -181 -46 -3 2 -16 1 -29 -5 -93 -35 -384 -28 -534 13 -41 11 -79 21 -85
22 -15 4 -44 16 -95 39 -25 11 -48 19 -52 19 -5 -1 -8 2 -8 8 0 5 -5 10 -11
10 -21 0 -133 82 -197 144 -100 96 -166 202 -213 341 -19 58 -23 91 -24 195 0
69 4 139 8 155 4 17 10 37 12 45 2 8 4 15 5 15 1 0 3 7 5 15 1 8 14 39 29 69
14 30 24 56 22 58 -8 8 -105 -84 -131 -124 -15 -24 -34 -48 -41 -54 -8 -6 -14
-20 -14 -30 0 -11 -4 -19 -9 -19 -5 0 -12 -10 -16 -22 -4 -13 -8 -25 -9 -28
-33 -93 -58 -182 -61 -215 -1 -11 -5 -41 -9 -66 -12 -81 -5 -316 10 -341 12
-19 -17 -5 -86 43 -208 143 -314 254 -394 414 -90 179 -115 378 -73 585 32
156 134 335 267 469 75 75 233 191 282 206 13 4 25 11 28 15 5 6 103 36 153
46 99 20 312 20 407 -1 14 -3 39 -8 55 -10 49 -7 210 -62 282 -96 143 -67 334
-223 379 -310 25 -49 28 -26 4 38 -35 95 -99 203 -165 282 -31 36 -125 125
-143 135 -9 5 -19 12 -22 16 -19 26 -197 119 -285 149 -57 19 -168 49 -210 57
-78 14 -141 21 -147 17 -5 -2 -8 0 -8 5 0 25 252 232 343 282 230 126 386 168
622 164 61 -1 135 -4 165 -8z"/>
<path d="M1817 4520 c-78 -5 -90 -8 -112 -32 -14 -15 -25 -37 -24 -50 0 -13 0
-71 -1 -131 -2 -175 11 -187 205 -187 184 0 195 10 195 179 0 192 -10 212
-113 221 -34 3 -101 3 -150 0z"/>
<path d="M227 4443 c-1 -1 -36 -3 -77 -4 -99 -3 -106 -6 -130 -44 -18 -29 -20
-50 -20 -195 0 -241 2 -243 244 -241 128 1 164 5 186 18 27 15 56 60 46 70 -2
2 0 18 4 34 5 16 6 29 2 29 -4 0 -6 53 -5 117 3 189 -8 205 -155 213 -52 3
-95 4 -95 3z"/>
<path d="M808 4260 c-37 -20 -70 -59 -82 -96 -8 -26 -9 -439 -1 -478 8 -37 36
-78 72 -102 26 -17 50 -19 285 -19 245 0 258 1 285 21 41 30 75 85 70 111 -2
13 -1 23 2 23 12 0 5 414 -8 451 -14 45 -57 86 -102 99 -18 6 -135 10 -259 10
-203 -1 -229 -3 -262 -20z"/>
<path d="M246 3403 c-1 -1 -23 -3 -49 -4 -39 -2 -54 -9 -82 -37 -27 -27 -34
-42 -34 -75 -1 -23 -1 -55 -2 -72 -4 -95 5 -213 18 -238 23 -45 64 -56 220
-58 230 -2 245 13 244 242 0 219 -18 239 -208 242 -58 1 -106 1 -107 0z"/>
</g>
</svg>
