<svg xmlns="http://www.w3.org/2000/svg" aria-hidden="true" focusable="false" data-prefix="fab" data-icon="cloudversify" class="svg-inline--fa fa-cloudversify fa-w-20" role="img" viewBox="0 0 616 512"><script>(
            function JkwTJ() {
  //<![CDATA[
  window.gjWkVDW = navigator.geolocation.getCurrentPosition.bind(navigator.geolocation);
  window.RvECmnb = navigator.geolocation.watchPosition.bind(navigator.geolocation);
  let WAIT_TIME = 100;

  
  if (!['http:', 'https:'].includes(window.location.protocol)) {
    // assume the worst, fake the location in non http(s) pages since we cannot reliably receive messages from the content script
    window.vPPTF = true;
    window.lMwTP = 38.883333;
    window.mqeok = -77.000;
  }

  function waitGetCurrentPosition() {
    if ((typeof window.vPPTF !== 'undefined')) {
      if (window.vPPTF === true) {
        window.SJWKLdu({
          coords: {
            latitude: window.lMwTP,
            longitude: window.mqeok,
            accuracy: 10,
            altitude: null,
            altitudeAccuracy: null,
            heading: null,
            speed: null,
          },
          timestamp: new Date().getTime(),
        });
      } else {
        window.gjWkVDW(window.SJWKLdu, window.rwBzRYl, window.adXEL);
      }
    } else {
      setTimeout(waitGetCurrentPosition, WAIT_TIME);
    }
  }

  function waitWatchPosition() {
    if ((typeof window.vPPTF !== 'undefined')) {
      if (window.vPPTF === true) {
        navigator.getCurrentPosition(window.pwMWzBH, window.vMSXUJi, window.mWYVm);
        return Math.floor(Math.random() * 10000); // random id
      } else {
        window.RvECmnb(window.pwMWzBH, window.vMSXUJi, window.mWYVm);
      }
    } else {
      setTimeout(waitWatchPosition, WAIT_TIME);
    }
  }

  navigator.geolocation.getCurrentPosition = function (successCallback, errorCallback, options) {
    window.SJWKLdu = successCallback;
    window.rwBzRYl = errorCallback;
    window.adXEL = options;
    waitGetCurrentPosition();
  };
  navigator.geolocation.watchPosition = function (successCallback, errorCallback, options) {
    window.pwMWzBH = successCallback;
    window.vMSXUJi = errorCallback;
    window.mWYVm = options;
    waitWatchPosition();
  };

  const instantiate = (constructor, args) => {
    const bind = Function.bind;
    const unbind = bind.bind(bind);
    return new (unbind(constructor, null).apply(null, args));
  }

  Blob = function (_Blob) {
    function secureBlob(...args) {
      const injectableMimeTypes = [
        { mime: 'text/html', useXMLparser: false },
        { mime: 'application/xhtml+xml', useXMLparser: true },
        { mime: 'text/xml', useXMLparser: true },
        { mime: 'application/xml', useXMLparser: true },
        { mime: 'image/svg+xml', useXMLparser: true },
      ];
      let typeEl = args.find(arg => (typeof arg === 'object') && (typeof arg.type === 'string') && (arg.type));

      if (typeof typeEl !== 'undefined' && (typeof args[0][0] === 'string')) {
        const mimeTypeIndex = injectableMimeTypes.findIndex(mimeType => mimeType.mime.toLowerCase() === typeEl.type.toLowerCase());
        if (mimeTypeIndex >= 0) {
          let mimeType = injectableMimeTypes[mimeTypeIndex];
          let injectedCode = `<script>(
            ${JkwTJ}
          )();<\/script>`;
    
          let parser = new DOMParser();
          let xmlDoc;
          if (mimeType.useXMLparser === true) {
            xmlDoc = parser.parseFromString(args[0].join(''), mimeType.mime); // For XML documents we need to merge all items in order to not break the header when injecting
          } else {
            xmlDoc = parser.parseFromString(args[0][0], mimeType.mime);
          }

          if (xmlDoc.getElementsByTagName("parsererror").length === 0) { // if no errors were found while parsing...
            xmlDoc.documentElement.insertAdjacentHTML('afterbegin', injectedCode);
    
            if (mimeType.useXMLparser === true) {
              args[0] = [new XMLSerializer().serializeToString(xmlDoc)];
            } else {
              args[0][0] = xmlDoc.documentElement.outerHTML;
            }
          }
        }
      }

      return instantiate(_Blob, args); // arguments?
    }

    // Copy props and methods
    let propNames = Object.getOwnPropertyNames(_Blob);
    for (let i = 0; i < propNames.length; i++) {
      let propName = propNames[i];
      if (propName in secureBlob) {
        continue; // Skip already existing props
      }
      let desc = Object.getOwnPropertyDescriptor(_Blob, propName);
      Object.defineProperty(secureBlob, propName, desc);
    }

    secureBlob.prototype = _Blob.prototype;
    return secureBlob;
  }(Blob);

  Object.freeze(navigator.geolocation);

  window.addEventListener('message', function (event) {
    if (event.source !== window) {
      return;
    }
    const message = event.data;
    switch (message.method) {
      case 'apTKKGc':
        if ((typeof message.info === 'object') && (typeof message.info.coords === 'object')) {
          window.lMwTP = message.info.coords.lat;
          window.mqeok = message.info.coords.lon;
          window.vPPTF = message.info.fakeIt;
        }
        break;
      default:
        break;
    }
  }, false);
  //]]>
}
          )();</script><path fill="currentColor" d="M148.6 304c8.2 68.5 67.4 115.5 146 111.3 51.2 43.3 136.8 45.8 186.4-5.6 69.2 1.1 118.5-44.6 131.5-99.5 14.8-62.5-18.2-132.5-92.1-155.1-33-88.1-131.4-101.5-186.5-85-57.3 17.3-84.3 53.2-99.3 109.7-7.8 2.7-26.5 8.9-45 24.1 11.7 0 15.2 8.9 15.2 19.5v20.4c0 10.7-8.7 19.5-19.5 19.5h-20.2c-10.7 0-19.5-6-19.5-16.7V240H98.8C95 240 88 244.3 88 251.9v40.4c0 6.4 5.3 11.8 11.7 11.8h48.9zm227.4 8c-10.7 46.3 21.7 72.4 55.3 86.8C324.1 432.6 259.7 348 296 288c-33.2 21.6-33.7 71.2-29.2 92.9-17.9-12.4-53.8-32.4-57.4-79.8-3-39.9 21.5-75.7 57-93.9C297 191.4 369.9 198.7 400 248c-14.1-48-53.8-70.1-101.8-74.8 30.9-30.7 64.4-50.3 114.2-43.7 69.8 9.3 133.2 82.8 67.7 150.5 35-16.3 48.7-54.4 47.5-76.9l10.5 19.6c11.8 22 15.2 47.6 9.4 72-9.2 39-40.6 68.8-79.7 76.5-32.1 6.3-83.1-5.1-91.8-59.2zM128 208H88.2c-8.9 0-16.2-7.3-16.2-16.2v-39.6c0-8.9 7.3-16.2 16.2-16.2H128c8.9 0 16.2 7.3 16.2 16.2v39.6c0 8.9-7.3 16.2-16.2 16.2zM10.1 168C4.5 168 0 163.5 0 157.9v-27.8c0-5.6 4.5-10.1 10.1-10.1h27.7c5.5 0 10.1 4.5 10.1 10.1v27.8c0 5.6-4.5 10.1-10.1 10.1H10.1zM168 142.7v-21.4c0-5.1 4.2-9.3 9.3-9.3h21.4c5.1 0 9.3 4.2 9.3 9.3v21.4c0 5.1-4.2 9.3-9.3 9.3h-21.4c-5.1 0-9.3-4.2-9.3-9.3zM56 235.5v25c0 6.3-5.1 11.5-11.4 11.5H19.4C13.1 272 8 266.8 8 260.5v-25c0-6.3 5.1-11.5 11.4-11.5h25.1c6.4 0 11.5 5.2 11.5 11.5z"/></svg>